<?xml version="1.0" encoding="UTF-8"?>
<!-- Generated by Pixelmator Pro 3.5.2 -->
<svg width="736" height="190" viewBox="0 0 736 190" xmlns="http://www.w3.org/2000/svg">
    <g id="Group">
        <g id="g1">
            <path id="Path" fill="#ec008c" stroke="none" d="M 318.016998 78.254997 L 278.968994 78.254997 L 268 182.094009 L 293.73999 182.094009 L 297.102997 150.942993 L 310.411987 150.942993 C 334.397003 150.942993 352.23999 134.708984 352.386993 111.307999 C 352.531982 90.541 339.076996 78.254997 318.016998 78.254997 Z M 310.266998 127.394997 L 299.735992 127.394997 L 302.515015 101.802002 L 313.338013 101.802002 C 321.088989 101.802002 326.5 104.581001 326.355011 114.088997 C 326.207001 125.056 318.748993 127.394997 310.266998 127.394997 Z"/>
            <path id="path1" fill="#ec008c" stroke="none" d="M 471.261017 124.031998 L 469.212006 145.239014 L 491.003998 145.239014 C 486.908997 156.355011 478.132996 160.01001 468.921021 160.01001 C 453.270996 160.01001 442.447998 148.895996 442.447998 132.514984 C 442.447998 114.964996 455.319 100.779999 473.307007 100.779999 C 484.276001 100.779999 491.295013 105.753998 496.122009 113.942001 L 515.721008 100.924995 C 506.505005 82.498001 489.688019 76.792999 474.330994 76.792999 C 442.01001 76.792999 415.97702 102.68 415.97702 135.588013 C 415.97702 165.42099 438.207001 183.558014 464.971008 183.558014 C 494.075012 183.558014 520.254028 161.472992 517.767029 124.031998 L 471.261017 124.031998 Z"/>
            <path id="path2" fill="#ec008c" stroke="none" d="M 581.385986 124.031998 L 579.336975 145.239014 L 601.130005 145.239014 C 597.033997 156.355011 588.260986 160.01001 579.045959 160.01001 C 563.396973 160.01001 552.573975 148.895996 552.573975 132.514984 C 552.573975 114.964996 565.445007 100.779999 583.432983 100.779999 C 594.401001 100.779999 601.421997 105.753998 606.245972 113.942001 L 625.846985 100.924995 C 616.630981 82.498001 599.812988 76.792999 584.455994 76.792999 C 552.133972 76.792999 526.101013 102.68 526.101013 135.588013 C 526.101013 165.42099 548.333984 183.558014 575.094971 183.558014 C 604.198975 183.558014 630.378967 161.472992 627.893005 124.031998 L 581.385986 124.031998 Z"/>
            <path id="path3" fill="#ec008c" stroke="none" d="M 675.437012 119.642998 L 657.446045 78.254997 L 629.223022 78.254997 L 660.519043 142.899994 L 655.984009 182.094009 L 681.726013 182.094009 L 686.26001 142.899994 L 731.157043 78.254997 L 701.322021 78.254997 Z"/>
            <path id="path4" fill="#ec008c" stroke="none" d="M 287.730011 0.651993 L 281.394989 60.615005 L 317.375 60.615005 L 318.895996 47.016998 L 297.781006 47.016998 L 302.595001 0.651993 Z"/>
            <path id="path5" fill="#ec008c" stroke="none" d="M 325.652008 60.615005 L 340.515991 60.615005 L 346.85199 0.651993 L 331.987 0.651993 Z"/>
            <path id="path6" fill="#ec008c" stroke="none" d="M 380.804993 61.460007 C 397.613007 61.460007 412.731018 48.707001 411.295013 27.085999 L 384.437012 27.085999 L 383.255005 39.333008 L 395.838989 39.333008 C 393.473999 45.751999 388.406006 47.862 383.084991 47.862 C 374.048004 47.862 367.798004 41.445007 367.798004 31.983002 C 367.798004 21.847 375.230011 13.656006 385.619019 13.656006 C 391.953003 13.656006 396.007996 16.528 398.794006 21.259003 L 410.112 13.742004 C 404.792023 3.102005 395.07901 -0.192993 386.210999 -0.192993 C 367.544006 -0.192993 352.511017 14.755005 352.511017 33.757996 C 352.511017 50.987 365.348999 61.460007 380.804993 61.460007 Z"/>
            <path id="path7" fill="#ec008c" stroke="none" d="M 467.714996 60.615005 L 474.048004 0.651993 L 459.184021 0.651993 L 456.734009 24.046005 L 435.873016 24.046005 L 438.322998 0.651993 L 423.457001 0.651993 L 417.123993 60.615005 L 431.987 60.615005 L 434.438019 37.641006 L 455.299011 37.641006 L 452.848999 60.615005 Z"/>
            <path id="path8" fill="#ec008c" stroke="none" d="M 480.384003 14.25 L 493.304993 14.25 L 488.492004 60.615005 L 503.356018 60.615005 L 508.171021 14.25 L 521.346008 14.25 L 522.866028 0.651993 L 481.820007 0.651993 Z"/>
            <path id="path9" fill="#ec008c" stroke="none" d="M 542.881958 24.975998 L 543.388977 24.975998 L 562.224976 60.615005 L 577.343994 60.615005 L 583.677979 0.651993 L 568.812988 0.651993 L 565.096985 36.292999 L 564.589966 36.292999 L 545.670959 0.651993 L 530.552979 0.651993 L 524.302002 60.615005 L 539.165955 60.615005 Z"/>
            <path id="path10" fill="#ec008c" stroke="none" d="M 602.005005 60.615005 L 608.338989 0.651993 L 593.476013 0.651993 L 587.140991 60.615005 Z"/>
            <path id="path11" fill="#ec008c" stroke="none" d="M 652.174988 36.292999 L 633.256958 0.651993 L 618.138 0.651993 L 611.886963 60.615005 L 626.752991 60.615005 L 630.469971 24.975998 L 630.976013 24.975998 L 649.812012 60.615005 L 664.928955 60.615005 L 671.265015 0.651993 L 656.396973 0.651993 L 652.682007 36.292999 Z"/>
            <path id="path12" fill="#ec008c" stroke="none" d="M 708.765991 27.085999 L 707.580994 39.333008 L 720.165039 39.333008 C 717.799988 45.751999 712.731995 47.862 707.413025 47.862 C 698.375 47.862 692.124023 41.445007 692.124023 31.983002 C 692.124023 21.847 699.557007 13.656006 709.947021 13.656006 C 716.281006 13.656006 720.334045 16.528 723.122986 21.259003 L 734.439026 13.742004 C 729.119019 3.102005 719.406006 -0.192993 710.538025 -0.192993 C 691.871033 -0.192993 676.837036 14.755005 676.837036 33.757996 C 676.837036 50.987 689.676025 61.460007 705.132019 61.460007 C 721.939026 61.460007 737.058044 48.707001 735.621033 27.085999 L 708.765991 27.085999 Z"/>
        </g>
        <g id="g2">
            <path id="path13" fill="#ffdb00" stroke="none" d="M 368.868988 72.665001 L 356.083008 134.721008 L 370.320007 134.721008 L 359.087982 190 L 411.174988 122.678001 L 392.153992 122.678001 L 414.967987 72.665001 Z"/>
        </g>
    </g>
    <g id="Group-copy">
        <path id="path14" fill="#f0bcd7" stroke="none" d="M 25.510555 162.313171 C 42.005138 175.8909 65.678368 175.488556 85.817673 174.07222 C 85.833435 174.071243 85.848701 174.069778 85.864464 174.068787 C 84.951927 173.291168 84.032005 172.49585 83.081543 171.684265 C 81.027481 169.931091 72.678246 162.579117 75.797028 162.580093 C 76.639633 162.580582 83.759666 166.974838 86.011215 168.523636 C 88.683319 170.362 91.517944 172.079224 94.345184 173.669388 C 99.498817 176.567047 105.065132 179.001297 110.914124 180.882507 C 119.569672 183.665421 127.092552 184.636566 135.718536 182.284561 C 139.55188 181.239059 143.154755 180.332428 146.586227 178.654617 C 149.592224 177.185089 153.506821 175.162552 156.384308 173.579758 C 164.655228 169.032852 170.016678 164.409607 170.982895 166.058868 C 171.481262 166.908356 164.815781 173.057755 162.896149 174.516434 C 162.730179 174.642502 162.561752 174.773987 162.393845 174.904984 C 169.850723 175.659943 177.308594 175.909622 184.872345 175.078827 C 191.53981 174.346527 198.102875 172.799713 204.318268 170.24678 C 209.07103 168.294159 214.2099 165.781097 217.754654 161.954666 C 221.803192 157.586502 225.154404 152.535797 226.8741 146.790222 C 228.078171 142.765808 228.658279 138.6035 228.958694 134.420502 C 229.829376 122.299507 225.427719 110.343956 219.951035 99.731369 C 214.158676 88.507133 207.076065 77.744331 199.011475 68.002411 C 194.712753 71.457047 190.102798 74.62999 185.253998 76.884987 C 182.530685 78.152092 179.994003 78.992729 177.324844 77.080002 C 173.386612 74.258179 171.34584 68.921837 169.940842 64.484253 C 167.952271 58.206818 167.140686 50.876007 165.739624 44.460175 C 165.48848 43.312241 165.227478 42.147583 164.93396 40.985352 C 164.464645 39.124832 164.008133 36.933853 163.449677 35.10434 C 161.632477 29.147522 159.163757 27.142685 159.67395 26.774811 C 160.723389 26.01741 164.055908 27.767639 166.041504 30.560898 C 167.634644 32.802078 168.697861 36.292664 169.440506 38.941635 C 172.163818 48.653519 172.829636 58.853424 177.669571 67.799522 C 178.306824 68.977989 178.974106 70.209625 179.932938 71.163536 C 180.085098 71.314728 180.655365 71.736267 181.287704 71.793396 C 182.000793 71.857414 182.782318 71.541748 182.960602 71.454086 C 183.419098 71.228058 183.90712 70.969994 184.316849 70.743965 C 188.909561 68.209251 193.235367 65.111153 197.307053 61.812149 C 204.803833 55.739563 210.879852 48.720978 215.220428 40.010284 C 216.902191 36.633942 219.725494 30.410187 216.091583 27.288467 C 214.070526 25.552032 211.072403 24.998016 208.539658 24.477478 C 205.448959 23.842682 202.327728 23.415726 199.20993 22.944443 C 192.730591 21.965408 186.232025 20.532349 179.942276 18.688553 C 176.747192 17.751907 173.585068 16.683746 170.550018 15.306808 C 168.540268 14.395767 166.648727 13.43103 164.494186 12.882904 C 162.047638 12.260437 155.503769 10.747101 153.931824 13.803329 C 152.633209 16.327209 152.468216 19.853745 153.121735 23.652603 C 153.306396 24.728638 153.775223 27.124466 154.387344 29.166733 C 155.312683 32.251999 156.194199 35.302322 155.894287 35.697769 C 155.109802 36.730469 151.120346 31.41333 149.60849 27.083588 C 149.480942 26.719177 149.356339 26.345886 149.234711 25.968155 C 147.978439 25.408722 146.7005 24.887695 145.396439 24.411499 C 143.177399 23.601379 140.91452 22.923264 138.621628 22.369751 C 138.375397 24.509964 138.118332 26.646286 137.860764 28.774719 C 137.311172 33.317688 136.735474 37.864609 136.079514 42.399719 C 138.585678 42.207169 141.094772 42.038239 143.600433 41.855042 C 144.333221 41.801376 145.067474 41.745728 145.799774 41.688599 C 145.629868 42.396759 145.453568 43.103439 145.272339 43.809143 C 143.218765 51.825958 140.477707 59.70932 137.692825 67.372055 C 135.84462 72.458221 133.982605 77.655197 131.909348 82.75515 C 131.408005 83.98877 130.893372 85.215996 130.364487 86.435341 C 130.180298 85.120453 129.974442 83.810997 129.75235 82.505966 C 128.229156 73.531792 125.865326 64.774307 123.244438 56.07692 C 120.461525 56.51767 117.68058 56.969742 114.9021 57.437592 C 114.615486 57.485855 114.327888 57.53067 114.041275 57.578918 C 113.644836 57.645889 113.247421 57.713852 112.850494 57.781326 C 112.765297 57.083496 112.673698 56.38765 112.576683 55.693771 C 112.394966 54.390717 112.197487 53.095535 112.001976 51.815613 C 110.844688 44.261719 109.34169 36.763458 107.748573 29.290329 C 107.27433 27.064377 106.784821 24.841415 106.295303 22.618408 C 104.038834 23.183289 101.811913 23.859436 99.626854 24.649826 C 99.078743 24.848297 98.532112 25.05217 97.987442 25.260986 C 97.019753 28.495972 95.757072 31.691086 94.504738 34.643402 C 89.622452 46.151291 82.475815 57.127335 74.634811 66.808685 C 71.532288 70.639557 66.306259 76.59935 60.96204 73.036377 C 56.24424 69.891495 53.072281 62.399162 50.059383 57.719772 C 46.817001 52.682358 43.719902 47.395752 40.712914 42.21405 C 38.862728 39.026825 33.612572 31.198624 31.231016 28.105453 C 28.016705 23.930344 26.330015 23.458588 26.542267 22.933121 C 26.942148 21.944244 30.251505 22.761246 32.869442 24.550842 C 35.225391 26.161209 38.690857 30.211716 40.368683 32.474594 C 44.34927 37.844925 48.093472 44.056351 51.130985 48.641205 C 53.86367 52.765594 56.377697 57.045578 59.33297 61.019775 C 60.71384 62.877342 62.270027 65.304199 64.30883 66.500397 C 66.143745 67.576927 66.856346 66.115784 68.061897 64.691574 C 74.861336 56.65654 81.315575 47.85817 86.142204 38.480682 C 88.37455 34.143555 90.363609 29.657211 91.770088 24.978806 C 92.897339 21.227707 93.963028 17.156525 93.49765 13.203018 C 93.236641 10.98642 92.109886 10.621002 89.993767 10.829819 C 87.258629 11.099197 84.563866 11.767975 81.843002 12.15947 C 75.420288 13.083328 68.370171 13.467941 61.910526 12.723358 C 54.968758 11.922592 48.383038 9.799591 41.641209 8.076965 C 37.022881 6.897018 31.969219 5.466873 27.162773 5.822937 C 25.256937 5.964279 23.933193 6.385834 22.920197 8.070053 C 21.451178 10.51268 21.202974 13.099106 21.156191 15.902695 C 21.042923 22.571167 22.290827 28.888977 24.127224 35.312668 C 26.549162 43.785004 30.38644 51.70137 35.751339 58.461411 C 37.493187 60.65683 44.567924 68.205315 43.647999 69.119316 C 43.299335 69.466019 40.602112 68.8918 38.95137 67.646362 C 38.502247 67.307549 38.076756 66.971687 37.666039 66.637299 C 26.088215 78.836128 16.659996 93.025482 12.055459 109.409752 C 9.497109 118.511467 8.316181 128.323318 10.36089 137.656006 C 12.503108 147.438309 17.774441 155.945114 25.510555 162.313171 Z M 159.612396 75.105713 C 161.157745 75.089943 163.115784 76.168442 164.33168 77.292747 C 164.670486 77.503029 164.975815 77.750237 165.188065 77.990067 C 165.703186 78.570198 166.104538 79.27195 166.337494 79.918564 C 166.917114 80.915802 167.352463 81.941605 167.577026 82.862015 C 168.165497 85.281982 168.272369 87.853622 167.463257 90.201691 C 166.772827 92.205032 165.541672 94.531433 162.974945 95.210556 C 160.828781 95.778358 157.723801 94.569366 156.189774 93.15107 C 150.907608 88.267784 150.643646 75.198288 159.612396 75.105713 Z M 85.792068 78.64653 C 88.643921 76.768753 92.402412 74.610786 95.966866 74.828461 C 99.85881 75.066307 103.150429 79.660507 104.772118 82.738403 C 110.330559 93.290428 110.480759 97.231613 109.815933 97.690094 C 109.292442 98.050591 107.080299 96.010315 104.692337 93.224434 C 103.199684 91.482597 98.823151 85.027382 94.210739 84.60041 C 90.629051 84.268982 89.45797 84.429039 81.364822 87.647293 C 77.313316 88.999107 76.390442 89.502403 75.880745 88.956253 C 74.972633 87.983635 80.478874 82.145973 85.792068 78.64653 Z M 72.460579 98.360832 C 73.337662 98.273186 73.099304 100.948235 75.500061 108.638565 C 78.793175 119.187134 83.729637 126.495293 86.614479 129.632782 C 91.17765 134.595825 96.445541 138.895523 102.287148 142.236404 C 111.372604 147.433868 121.595665 150.708252 131.982208 151.984726 C 142.672623 153.298126 154.492752 153.691116 164.924118 150.549683 C 167.68634 149.718414 171.240448 148.673401 171.638351 145.993408 C 172.197311 142.224091 170.525894 137.855942 169.213974 134.4151 C 165.23584 123.978317 158.96875 113.83799 151.625137 105.416855 C 148.52507 101.862259 144.601593 97.950623 139.489349 98.427818 C 134.247055 98.916824 129.390869 102.167084 125.473328 105.477928 C 120.88504 109.355591 116.785774 113.769051 112.913528 118.352898 C 111.717827 119.768234 110.496521 121.182098 109.28801 122.612228 C 106.376564 126.057007 99.206291 134.987823 98.122871 134.503235 C 96.843452 133.931 99.654434 128.78476 103.879776 122.05574 C 108.664055 114.435837 118.070122 104.115768 121.145554 101.563332 C 122.647568 100.316406 124.208191 99.144836 125.839226 98.079147 C 129.957199 95.388329 136.075577 92.173515 141.158783 92.605415 C 151.503983 93.483475 158.888474 104.848557 164.136658 112.684631 C 169.994034 121.429321 176.015869 131.863144 177.237686 142.522537 C 177.583878 145.546249 177.518372 150.112381 174.928513 152.193542 C 171.692047 154.793243 166.585693 156.378494 162.561279 157.204849 C 151.048935 159.568665 139.235229 160.008942 127.68055 158.049927 C 117.11277 156.257843 106.644958 152.042847 97.547668 146.299225 C 86.400757 139.261429 77.717628 128.739944 73.944374 116.581512 C 70.416855 105.213966 71.080208 98.498718 72.460579 98.360832 Z M 118.135612 128.541473 C 119.614487 124.61113 122.173813 120.918152 124.76812 117.746681 C 129.575546 111.871094 133.676788 110.881241 135.049774 111.469238 C 136.323776 112.014893 137.238785 116.425392 131.990112 128.614853 C 130.830841 131.306656 129.449966 133.749771 126.378479 136.751831 C 124.520905 138.567062 121.570053 139.84697 119.215096 137.927841 C 116.682846 135.863434 117.120155 131.240662 118.135612 128.541473 Z M 147.156509 113.380981 C 150.970642 112.197098 156.114929 122.73632 157.509094 127.030106 C 159.047546 131.765137 163.257614 141.271179 156.508896 142.788956 C 149.333191 144.402267 146.999908 134.696777 146.163712 130.178436 C 145.551575 126.873505 143.601425 115.380875 147.156509 113.380981 Z"/>
        <path id="path15" fill="#ffffff" stroke="none" d="M 161.582748 85.265739 C 162.356903 85.836006 163.36644 86.298431 164.355804 86.036926 C 165.538712 85.724701 166.10553 84.65213 166.424164 83.72876 C 166.796448 82.646805 166.748199 81.461456 166.476349 80.346512 C 166.443359 80.209595 166.389679 80.063339 166.337494 79.918068 C 166.104538 79.271454 165.703186 78.569702 165.188065 77.989571 C 164.975327 77.749741 164.670486 77.502533 164.33168 77.292252 C 163.844131 76.989876 163.283234 76.766785 162.807007 76.771713 C 158.673264 76.81456 159.028824 83.384026 161.582748 85.265739 Z"/>
        <g id="g3">
            <path id="path16" fill="#ec008c" stroke="none" d="M 41.180264 178.188736 C 57.572414 182.794739 75.906837 181.353302 93.186409 179.654816 C 94.567772 180.538269 96.041229 181.373993 97.6698 182.151108 C 101.137238 183.804306 104.740105 185.279724 108.447372 186.555206 C 117.2743 189.596161 125.965302 190.956848 134.804535 189.26326 C 140.201431 188.228592 145.260529 186.40303 149.957138 184.082047 C 152.00383 183.070038 154.001266 181.669952 155.926788 180.16745 C 161.641342 180.936691 167.421402 181.602005 172.962112 181.732513 C 186.036041 182.040298 199.087799 179.835526 210.980804 174.313538 C 221.617523 169.37413 229.386139 160.629425 233.265289 149.545059 C 236.16098 141.269211 236.634735 131.669601 235.377472 123.067253 C 233.662704 111.337257 228.309143 100.169655 222.454727 89.992401 C 217.22525 80.902008 210.472092 72.19722 203.657379 64.081406 C 204.415283 63.413139 205.162338 62.742897 205.89563 62.075119 C 208.916885 59.325195 211.402359 56.328064 213.754364 52.998032 C 217.220322 48.090134 220.990143 42.196335 222.6064 36.347336 C 223.616455 32.689301 224.201004 28.371384 221.942566 25.14476 C 219.245834 21.293198 213.487442 20.208817 209.154739 19.318924 C 203.831207 18.225647 198.4151 17.717422 193.099945 16.56012 C 187.358795 15.310745 181.627014 13.979141 176.089737 11.992538 C 172.066315 10.54863 168.089172 7.912964 163.867783 7.015213 C 160.031967 6.199692 156.237549 5.967728 152.591827 7.531296 C 148.6073 9.239655 148.144379 14.502136 147.949371 18.317734 C 147.939026 18.514221 147.944931 18.715164 147.943466 18.914108 C 141.710846 16.564087 135.171906 15.070435 128.476364 14.577454 C 118.409424 13.836334 108.740387 15.437805 99.479111 18.486664 C 99.479111 18.485672 99.479111 18.48468 99.479607 18.4832 C 100.016396 14.215027 99.153595 8.874237 94.96273 6.437042 C 93.172134 5.395493 90.844749 5.521561 88.876366 5.767792 C 85.754646 6.157822 82.691025 6.901443 79.563385 7.258972 C 72.982101 8.011948 65.855164 8.248322 59.308842 7.164413 C 52.56356 6.047501 45.809422 2.919861 39.135059 1.492722 C 34.541359 0.509262 29.532509 -0.477646 24.820614 0.253174 C 12.924165 2.098923 14.974785 19.334671 16.449221 27.752853 C 17.495214 33.722977 19.491663 40.072327 21.87174 45.620438 C 22.908377 48.036942 27.052954 55.2742 31.348221 60.322433 C 31.92145 60.996124 32.520287 61.679672 33.15704 62.371582 C 28.314152 67.494194 23.858339 72.949211 19.926016 78.751411 C 8.90566 95.008148 -0.259092 116.137802 2.444042 136.016602 C 5.298855 157.012283 21.214792 172.579086 41.180264 178.188736 Z M 12.054967 109.409752 C 16.659504 93.024986 26.087723 78.835632 37.665546 66.637299 C 38.075768 66.971687 38.501755 67.308029 38.950878 67.646362 C 40.602112 68.8918 43.298843 69.465523 43.647507 69.119316 C 44.567429 68.205315 37.492695 60.656326 35.750847 58.461411 C 30.38644 51.70137 26.549162 43.785004 24.127224 35.312668 C 22.290827 28.888977 21.042923 22.571167 21.155205 15.900238 C 21.20199 13.096649 21.450191 10.510208 22.919212 8.067581 C 23.932209 6.383362 25.255953 5.961807 27.161787 5.82048 C 31.968727 5.463928 37.021896 6.894043 41.640221 8.074493 C 48.382053 9.797607 54.967773 11.920135 61.909542 12.720886 C 68.369186 13.465988 75.419304 13.080887 81.842018 12.157013 C 84.562874 11.765991 87.258133 11.097244 89.992783 10.827347 C 92.108902 10.619049 93.235657 10.983948 93.496666 13.200546 C 93.962044 17.154053 92.896355 21.225235 91.769104 24.976334 C 90.362625 29.654755 88.373566 34.141602 86.14122 38.47821 C 81.31459 47.855728 74.860352 56.654083 68.060913 64.68911 C 66.855362 66.113815 66.142761 67.574463 64.307846 66.497932 C 62.269039 65.301254 60.712856 62.874878 59.331985 61.017303 C 56.377205 57.04361 53.863178 52.763123 51.130001 48.638748 C 48.092487 44.053909 44.348282 37.842453 40.367695 32.472137 C 38.689873 30.208771 35.224403 26.158752 32.868458 24.548386 C 30.250519 22.758774 26.940672 21.941788 26.541283 22.930649 C 26.328539 23.456604 28.015718 23.927902 31.23003 28.102997 C 33.611588 31.196167 38.86174 39.024857 40.711929 42.211578 C 43.719406 47.393295 46.816017 52.679901 50.058399 57.717316 C 53.071297 62.39669 56.243252 69.889046 60.961056 73.033913 C 66.305763 76.596405 71.531303 70.637093 74.633827 66.806221 C 82.474335 57.124374 89.621468 46.148346 94.503754 34.640945 C 95.756088 31.688629 97.018768 28.494019 97.986458 25.258514 C 98.531128 25.049713 99.077759 24.845825 99.62587 24.647385 C 101.810928 23.856964 104.037849 23.180817 106.294319 22.615982 C 116.855705 19.971924 128.061707 19.820251 138.621628 22.36824 C 140.91452 22.921783 143.177399 23.599915 145.396439 24.409988 C 146.699997 24.885712 147.978439 25.406769 149.234711 25.966675 C 149.356339 26.344406 149.480942 26.717194 149.60849 27.082123 C 151.119858 31.41185 155.109802 36.728989 155.894287 35.696289 C 156.194199 35.300842 155.312683 32.250046 154.387344 29.165222 C 153.775223 27.123001 153.306396 24.726654 153.121735 23.651138 C 152.468216 19.852264 152.633209 16.325729 153.931824 13.801849 C 155.503769 10.745621 162.047638 12.258972 164.494186 12.881424 C 166.648727 13.429535 168.540268 14.394287 170.550018 15.305328 C 173.585068 16.682281 176.747192 17.750427 179.942276 18.687088 C 186.232025 20.530884 192.730591 21.963943 199.20993 22.942978 C 202.327728 23.414246 205.448959 23.841217 208.539658 24.475998 C 211.072403 24.996033 214.070038 25.550568 216.091583 27.286987 C 219.725983 30.408234 216.902191 36.632477 215.220428 40.008789 C 210.879852 48.719513 204.803833 55.738586 197.307053 61.810654 C 193.235367 65.10968 188.909561 68.207283 184.316849 70.742477 C 183.90712 70.968521 183.419098 71.22657 182.960602 71.452614 C 182.782318 71.540276 182.000793 71.855942 181.287704 71.791924 C 180.655365 71.734795 180.085098 71.313255 179.932938 71.162064 C 178.974594 70.208153 178.306824 68.976501 177.669571 67.798042 C 172.829636 58.851944 172.163818 48.652527 169.440506 38.940155 C 168.697372 36.291672 167.634644 32.801086 166.041504 30.559387 C 164.056381 27.766144 160.723389 26.015945 159.67395 26.773331 C 159.163757 27.141693 161.632477 29.146027 163.449677 35.102875 C 164.008133 36.932388 164.464645 39.12384 164.93396 40.983887 C 165.227478 42.146088 165.48848 43.310776 165.739624 44.45871 C 167.14119 50.874039 167.952271 58.205338 169.940842 64.482765 C 171.346329 68.920364 173.386612 74.256706 177.324844 77.078529 C 179.994003 78.991241 182.530182 78.150604 185.253998 76.883499 C 190.102798 74.628517 194.712265 71.456055 199.011475 68.000938 C 207.076065 77.742859 214.158676 88.506142 219.951035 99.729881 C 225.427719 110.342979 229.829376 122.298035 228.958694 134.419037 C 228.658279 138.602036 228.078171 142.764328 226.8741 146.788742 C 225.154907 152.534317 221.803192 157.585037 217.754654 161.953186 C 214.2099 165.779633 209.07103 168.292664 204.318268 170.245285 C 198.102875 172.798233 191.53981 174.344559 184.872345 175.077347 C 177.309082 175.90863 169.850723 175.658951 162.393845 174.903519 C 162.561752 174.772522 162.730179 174.641037 162.896149 174.514954 C 164.815277 173.056274 171.481262 166.906876 170.982895 166.057373 C 170.016678 164.408112 164.655228 169.031372 156.384308 173.578293 C 153.506332 175.161072 149.591751 177.183121 146.586227 178.653122 C 143.154251 180.330948 139.55188 181.237579 135.718536 182.283081 C 127.092552 184.635086 119.569672 183.664444 110.914124 180.881042 C 105.065132 178.999817 99.499306 176.565079 94.345184 173.667923 C 91.517944 172.077759 88.683319 170.360535 86.011215 168.522156 C 83.760162 166.97287 76.639633 162.579117 75.797028 162.578613 C 72.677757 162.577637 81.026985 169.930115 83.081543 171.6828 C 84.032494 172.493881 84.951927 173.289703 85.864464 174.067307 C 85.848701 174.068283 85.833435 174.069778 85.817673 174.070755 C 65.678368 175.487076 42.005138 175.88942 25.510555 162.311707 C 17.774441 155.943146 12.503108 147.436813 10.360398 137.655029 C 8.316181 128.323822 9.497109 118.511963 12.054967 109.409752 Z"/>
            <path id="path17" fill="#ec008c" stroke="none" d="M 97.547668 146.298752 C 106.644463 152.042358 117.11277 156.257843 127.68055 158.049423 C 139.235229 160.008942 151.048935 159.568176 162.561279 157.204346 C 166.585693 156.377991 171.692047 154.793243 174.928513 152.193039 C 177.518875 150.111877 177.584366 145.545761 177.237686 142.522034 C 176.016373 131.86264 169.994034 121.428825 164.136658 112.684151 C 158.888474 104.848061 151.503983 93.482979 141.158783 92.604919 C 136.075577 92.173035 129.957199 95.387833 125.839226 98.078651 C 124.208191 99.144341 122.648064 100.31591 121.145554 101.562836 C 118.070122 104.115288 108.664055 114.435837 103.879776 122.055244 C 99.654434 128.784271 96.843452 133.930511 98.122871 134.502762 C 99.206291 134.987335 106.376564 126.057007 109.28801 122.611732 C 110.496521 121.181618 111.717827 119.767754 112.913528 118.352402 C 116.785774 113.768555 120.88504 109.354599 125.473328 105.477432 C 129.391373 102.166603 134.247559 98.916344 139.489349 98.427322 C 144.601593 97.950623 148.52507 101.862259 151.625137 105.416374 C 158.96875 113.837494 165.23584 123.977318 169.213974 134.414597 C 170.525894 137.85495 172.197311 142.223114 171.638351 145.99292 C 171.240448 148.672913 167.686829 149.717422 164.924118 150.549194 C 154.492752 153.690613 142.672623 153.297638 131.982208 151.984238 C 121.595177 150.707779 111.372116 147.43338 102.287148 142.235916 C 96.445541 138.895035 91.17765 134.595337 86.614479 129.632294 C 83.729637 126.494797 78.793175 119.186638 75.500061 108.638069 C 73.099304 100.947754 73.337662 98.27269 72.460579 98.360352 C 71.080696 98.498238 70.416855 105.21347 73.94487 116.580521 C 77.717628 128.738953 86.400757 139.260941 97.547668 146.298752 Z"/>
            <path id="path18" fill="#ec008c" stroke="none" d="M 81.364822 87.646797 C 89.45797 84.428543 90.629051 84.268486 94.210739 84.599915 C 98.823151 85.026886 103.199684 91.482101 104.692337 93.223938 C 107.080299 96.010315 109.292442 98.050095 109.815933 97.689613 C 110.481247 97.231133 110.330559 93.289932 104.772118 82.737907 C 103.150429 79.660011 99.85881 75.065826 95.966866 74.827965 C 92.402412 74.610291 88.643921 76.767776 85.792068 78.646034 C 80.478874 82.144989 74.972633 87.982658 75.880745 88.955261 C 76.390442 89.501907 77.313316 88.998611 81.364822 87.646797 Z"/>
            <path id="path19" fill="#ec008c" stroke="none" d="M 162.974442 95.210556 C 165.541168 94.531433 166.772339 92.205032 167.462769 90.201691 C 168.272369 87.853142 168.165497 85.281487 167.576523 82.862015 C 167.351959 81.941605 166.916626 80.915802 166.33699 79.918564 C 166.389191 80.063835 166.442871 80.209595 166.475861 80.347008 C 166.747696 81.461952 166.795471 82.646805 166.42366 83.72924 C 166.105042 84.652611 165.538208 85.725197 164.355316 86.037422 C 163.365967 86.298927 162.3564 85.836502 161.58226 85.26622 C 159.027832 83.384521 158.672791 76.815056 162.806519 76.772705 C 163.28273 76.767776 163.843155 76.990868 164.331192 77.293228 C 163.115295 76.168442 161.157257 75.090439 159.611908 75.106209 C 150.643143 75.198784 150.90712 88.26828 156.188797 93.152046 C 157.723312 94.569366 160.828293 95.778358 162.974442 95.210556 Z"/>
            <path id="path20" fill="#ec008c" stroke="none" d="M 156.508896 142.788956 C 163.257614 141.271179 159.047546 131.765137 157.509094 127.030106 C 156.114929 122.73632 150.970642 112.197098 147.156509 113.380981 C 143.601425 115.381371 145.551575 126.873505 146.163712 130.177933 C 147.000397 134.696777 149.333191 144.402267 156.508896 142.788956 Z"/>
            <path id="path21" fill="#ec008c" stroke="none" d="M 126.378479 136.752335 C 129.449966 133.749771 130.830841 131.306656 131.990112 128.615341 C 137.238785 116.425888 136.323776 112.015388 135.049774 111.469734 C 133.676788 110.881737 129.575546 111.87159 124.76812 117.747177 C 122.173813 120.918152 119.614487 124.61113 118.135612 128.541977 C 117.119659 131.240662 116.682846 135.863922 119.215096 137.928833 C 121.570549 139.847473 124.520905 138.567062 126.378479 136.752335 Z"/>
        </g>
        <g id="g4">
            <path id="path22" fill="#ffdb00" stroke="none" d="M 112.001488 51.814621 C 112.197487 53.094559 112.39447 54.389725 112.576187 55.69278 C 112.67321 56.386673 112.764809 57.082031 112.849998 57.780334 C 113.246925 57.712875 113.644348 57.645416 114.040779 57.577927 C 114.327888 57.529678 114.61499 57.484863 114.901604 57.4366 C 117.68058 56.969254 120.461525 56.516678 123.243942 56.075928 C 125.865326 64.773331 128.228668 73.530815 129.751846 82.504974 C 129.973953 83.810005 130.17981 85.119461 130.363983 86.434349 C 130.892899 85.215004 131.408005 83.987793 131.908844 82.754173 C 133.982117 77.654205 135.844116 72.457245 137.692337 67.371078 C 140.47673 59.708344 143.218277 51.82547 145.271851 43.808151 C 145.453079 43.102463 145.629868 42.395782 145.799271 41.687607 C 145.066986 41.744736 144.332718 41.800385 143.59993 41.854065 C 141.093781 42.037262 138.584686 42.206177 136.079025 42.398727 C 136.734985 37.863632 137.310684 33.316696 137.86026 28.773727 C 138.11734 26.644806 138.374893 24.509003 138.621124 22.368759 C 128.061707 19.821228 116.855705 19.972412 106.293831 22.616455 C 106.78334 24.839432 107.272362 27.062424 107.747086 29.288345 C 109.341194 36.761993 110.844688 44.260239 112.001488 51.814621 Z"/>
        </g>
    </g>
</svg>
